# xmcd
#
# Track frame offsets:
#	150
#	19946
#	44695
#	66867
#	90486
#	114843
#	131353
#	149501
#	172400
#	185785
#
# Disc length: 2748 seconds
#
# Revision: 1
# Processed by: cddbd v1.4PL0 Copyright (c) Steve Scherf et al.
# Submitted via: audiograbber 1.81.03
#
DISCID=940aba0a
DTITLE=Tina Arena - don't ask
DYEAR=1900
DGENRE=
TTITLE0=Chains
TTITLE1=Heaven Help My Heart
TTITLE2=Sorrento Moon (I Remember)
TTITLE3=Wasn't It Good
TTITLE4=Message
TTITLE5=Love Is The Answer
TTITLE6=Greatest Gift
TTITLE7=That's The Way A Woman Feels
TTITLE8=Be A Man
TTITLE9=Standing Up
EXTD=
EXTT0=
EXTT1=
EXTT2=
EXTT3=
EXTT4=
EXTT5=
EXTT6=
EXTT7=
EXTT8=
EXTT9=
PLAYORDER=
